<svg width="363" height="125" viewBox="0 0 363 125" fill="none" xmlns="http://www.w3.org/2000/svg">
<path d="M87.959 91.173C87.959 60.7363 115.792 29.249 147.27 29.249C162.407 29.249 171.45 36.3832 171.45 45.253C171.45 58.2973 152.139 76.384 110.924 80.0378C110.75 81.5999 110.75 82.9975 110.75 84.5595C110.75 101.431 118.926 112.393 132.838 112.393C144.786 112.393 158.57 102.847 167.961 83.4268C168.271 82.7874 169.002 82.4677 169.669 82.696C170.445 82.9518 170.847 83.8196 170.527 84.5778C159.264 111.452 138.775 124.396 120.314 124.396C101.003 124.396 87.959 111.525 87.959 91.173ZM153.181 42.9967C153.181 37.6073 149.18 34.4741 143.617 34.4741C128.48 34.4741 114.048 54.9997 111.262 77.0873C137.706 72.3921 153.181 53.7756 153.181 42.9967Z" fill="#141414"/>
<path d="M278.938 91.173C278.938 60.7363 306.772 29.249 338.25 29.249C353.386 29.249 362.429 36.3832 362.429 45.253C362.429 58.2973 343.118 76.384 301.903 80.0378C301.729 81.5999 301.729 82.9975 301.729 84.5595C301.729 101.431 309.905 112.393 323.817 112.393C335.765 112.393 349.549 102.847 358.94 83.4268C359.25 82.7874 359.981 82.4677 360.648 82.696C361.424 82.9518 361.826 83.8196 361.507 84.5778C350.244 111.452 329.754 124.396 311.293 124.396C291.983 124.396 278.938 111.525 278.938 91.173ZM344.16 42.9967C344.16 37.6073 340.159 34.4741 334.596 34.4741C319.46 34.4741 305.027 54.9997 302.241 77.0873C328.677 72.3921 344.16 53.7756 344.16 42.9967Z" fill="#141414"/>
<path d="M81.9022 121.901H0.79541V106.929L70.2738 47.0236H2.03773V32.0427H83.1628V47.0236L23.2576 106.929H81.9022V121.901Z" fill="#141414"/>
<path d="M240.955 29.3585C234.917 29.3585 229.345 31.4047 224.915 34.8485C223.279 36.1091 221.79 37.5706 220.493 39.1874C218.758 41.3432 217.47 43.8187 216.529 46.4221C212.427 57.8405 199.767 91.9585 199.767 91.9585V32.0441H184.795V121.893H196.113L225.052 55.5568C225.052 55.5568 229.345 44.3577 240.955 44.3485C247.139 44.3485 252.154 49.3635 252.154 55.5568L252.182 121.893H267.162V55.5659C267.162 41.0875 255.424 29.3585 240.955 29.3585Z" fill="#141414"/>
<path d="M192.285 24.1438C198.899 24.1438 204.261 18.7821 204.261 12.1682C204.261 5.55427 198.899 0.192627 192.285 0.192627C185.672 0.192627 180.31 5.55427 180.31 12.1682C180.31 18.7821 185.672 24.1438 192.285 24.1438Z" fill="#141414"/>
</svg>
